<svg xmlns="http://www.w3.org/2000/svg" xmlns:xlink="http://www.w3.org/1999/xlink" width="570px" height="386px" viewBox="0 0 570 386"><title>img_1</title><defs><radialGradient cx="50%" cy="50%" fx="50%" fy="50%" r="86.3636364%" gradientTransform="translate(0.500000,0.500000),scale(0.578947,1.000000),scale(1.000000,0.560908),translate(-0.500000,-0.500000)" id="radialGradient-1"><stop stop-color="#A5A5A5" offset="0%"></stop><stop stop-color="#FFFFFF" offset="100%"></stop></radialGradient><linearGradient x1="59.1327946%" y1="88.8883251%" x2="59.1327946%" y2="10.6939687%" id="linearGradient-2"><stop stop-color="#005DDD" offset="0%"></stop><stop stop-color="#0070FF" stop-opacity="0" offset="100%"></stop></linearGradient><linearGradient x1="50%" y1="88.4223154%" x2="50%" y2="8.95676898%" id="linearGradient-3"><stop stop-color="#00439F" offset="0%"></stop><stop stop-color="#0070FF" stop-opacity="0" offset="100%"></stop></linearGradient><radialGradient cx="50%" cy="50%" fx="50%" fy="50%" r="206.154659%" gradientTransform="translate(0.500000,0.500000),scale(0.259695,1.000000),scale(1.000000,0.228168),translate(-0.500000,-0.500000)" id="radialGradient-4"><stop stop-color="#0046C0" offset="0%"></stop><stop stop-color="#0046C0" stop-opacity="0" offset="100%"></stop></radialGradient><filter x="-14.8%" y="-57.1%" width="129.7%" height="214.3%" id="filter-5"><feGaussianBlur stdDeviation="6"></feGaussianBlur></filter><linearGradient x1="33.016804%" y1="12.9792505%" x2="57.0543889%" y2="79.5249773%" id="linearGradient-6"><stop stop-color="#005DDE" offset="0%"></stop><stop stop-color="#2785FF" offset="35.0348395%"></stop><stop stop-color="#0046C0" offset="100%"></stop></linearGradient><linearGradient x1="-0.000480407802%" y1="49.9995865%" x2="99.9999857%" y2="49.9995865%" id="linearGradient-7"><stop stop-color="#005DDD" offset="0%"></stop><stop stop-color="#0070FF" offset="100%"></stop></linearGradient><radialGradient cx="50%" cy="50%" fx="50%" fy="50%" r="205.47252%" gradientTransform="translate(0.500000,0.500000),scale(0.260557,1.000000),scale(1.000000,0.228168),translate(-0.500000,-0.500000)" id="radialGradient-8"><stop stop-color="#7580B0" offset="0%"></stop><stop stop-color="#BABFD5" stop-opacity="0" offset="100%"></stop></radialGradient><filter x="-10.8%" y="-41.6%" width="121.7%" height="183.3%" id="filter-9"><feGaussianBlur stdDeviation="3"></feGaussianBlur></filter><linearGradient x1="44.1677848%" y1="27.6551854%" x2="63.2817988%" y2="74.7275796%" id="linearGradient-10"><stop stop-color="#DCE2FE" offset="0%"></stop><stop stop-color="#E8ECFF" offset="70.3441723%"></stop><stop stop-color="#D5DBF4" offset="100%"></stop></linearGradient><linearGradient x1="31.4776943%" y1="0%" x2="70.0123486%" y2="100%" id="linearGradient-11"><stop stop-color="#005DDD" offset="0%"></stop><stop stop-color="#0070FF" offset="100%"></stop></linearGradient><radialGradient cx="50%" cy="50%" fx="50%" fy="50%" r="206.829193%" gradientTransform="translate(0.500000,0.500000),scale(0.258848,1.000000),scale(1.000000,0.228168),translate(-0.500000,-0.500000)" id="radialGradient-12"><stop stop-color="#7580B0" offset="0%"></stop><stop stop-color="#BABFD5" stop-opacity="0" offset="100%"></stop></radialGradient><filter x="-13.7%" y="-52.9%" width="127.4%" height="205.8%" id="filter-13"><feGaussianBlur stdDeviation="3"></feGaussianBlur></filter><linearGradient x1="44.1644789%" y1="27.6551854%" x2="63.2893274%" y2="74.7275796%" id="linearGradient-14"><stop stop-color="#DCE2FE" offset="0%"></stop><stop stop-color="#E8ECFF" offset="70.3441723%"></stop><stop stop-color="#D5DBF4" offset="100%"></stop></linearGradient><linearGradient x1="30.135721%" y1="11.0416746%" x2="76.8241959%" y2="78.900337%" id="linearGradient-15"><stop stop-color="#005DDD" offset="0%"></stop><stop stop-color="#0070FF" offset="100%"></stop></linearGradient><radialGradient cx="50%" cy="50%" fx="50%" fy="50%" r="206.139533%" gradientTransform="translate(0.500000,0.500000),scale(0.259714,1.000000),scale(1.000000,0.228168),translate(-0.500000,-0.500000)" id="radialGradient-16"><stop stop-color="#7580B0" offset="0%"></stop><stop stop-color="#BABFD5" stop-opacity="0" offset="100%"></stop></radialGradient><filter x="-16.1%" y="-62.0%" width="132.2%" height="224.0%" id="filter-17"><feGaussianBlur stdDeviation="3"></feGaussianBlur></filter><linearGradient x1="44.0950937%" y1="27.6551854%" x2="63.4473395%" y2="74.7275796%" id="linearGradient-18"><stop stop-color="#DCE2FE" offset="0%"></stop><stop stop-color="#E8ECFF" offset="70.3441723%"></stop><stop stop-color="#D5DBF4" offset="100%"></stop></linearGradient><linearGradient x1="0%" y1="2.34329867%" x2="84.5330482%" y2="84.3174737%" id="linearGradient-19"><stop stop-color="#005DDD" offset="0%"></stop><stop stop-color="#0070FF" offset="100%"></stop></linearGradient><filter x="-13.7%" y="-52.9%" width="127.4%" height="205.8%" id="filter-20"><feGaussianBlur stdDeviation="3"></feGaussianBlur></filter><linearGradient x1="44.1644943%" y1="27.6551854%" x2="63.2892922%" y2="74.7275796%" id="linearGradient-21"><stop stop-color="#DCE2FE" offset="0%"></stop><stop stop-color="#E8ECFF" offset="70.3441723%"></stop><stop stop-color="#D5DBF4" offset="100%"></stop></linearGradient><linearGradient x1="25.2652242%" y1="8.78801974%" x2="74.7347758%" y2="91.3513911%" id="linearGradient-22"><stop stop-color="#005DDD" offset="0%"></stop><stop stop-color="#0070FF" offset="100%"></stop></linearGradient><linearGradient x1="42.3080875%" y1="27.0955774%" x2="62.0679098%" y2="74.7275796%" id="linearGradient-23"><stop stop-color="#E8ECFF" offset="0%"></stop><stop stop-color="#D5DBF4" offset="100%"></stop></linearGradient><linearGradient x1="-0.000480407802%" y1="49.9995865%" x2="99.9999857%" y2="49.9995865%" id="linearGradient-24"><stop stop-color="#005DDD" offset="0%"></stop><stop stop-color="#0070FF" offset="100%"></stop></linearGradient></defs><g id="01_Desktop" stroke="none" stroke-width="1" fill="none" fill-rule="evenodd"><g id="01_Home-Page_1" transform="translate(-135.000000, -897.000000)"><g id="Building-Trusted" transform="translate(135.000000, 831.000000)"><g id="img_1" transform="translate(0.000000, 66.000000)"><path d="M475.146344,220.521298 L521.895274,193.545936 L475.031446,166.325179 L428.283725,193.30175 L475.146344,220.521298 L475.146344,220.521298 Z M380.591422,165.599873 L427.340352,138.623302 L380.477733,111.403754 L333.728803,138.380324 L380.591422,165.599873 L380.591422,165.599873 Z M522.420176,247.980197 L569.167897,221.004835 L522.305278,193.784078 L475.557557,220.75944 L522.420176,247.980197 L522.420176,247.980197 Z M286.0365,110.678447 L332.785431,83.701877 L285.922812,56.4823289 L239.173881,83.4576904 L286.0365,110.678447 L286.0365,110.678447 Z M333.318799,138.142182 L380.06652,111.164403 L333.203901,83.9448547 L286.45497,110.921425 L333.318799,138.142182 L333.318799,138.142182 Z M427.865254,193.058772 L474.614185,166.082201 L427.751566,138.861444 L381.002635,165.839224 L427.865254,193.058772 L427.865254,193.058772 Z M427.254481,302.896787 L474.417044,275.682074 L427.553216,248.461317 L380.391862,275.677239 L427.254481,302.896787 L427.254481,302.896787 Z M379.980649,275.437887 L427.142002,248.223175 L380.279383,221.003627 L333.11803,248.218339 L379.980649,275.437887 L379.980649,275.437887 Z M285.425727,220.516462 L332.58829,193.30175 L285.725671,166.080993 L238.563108,193.296914 L285.425727,220.516462 L285.425727,220.516462 Z M238.151894,193.057563 L285.314457,165.84285 L238.451838,138.622093 L191.289275,165.838015 L238.151894,193.057563 L238.151894,193.057563 Z M190.870805,165.595037 L238.033368,138.380324 L191.170749,111.159567 L144.008186,138.375489 L190.870805,165.595037 L190.870805,165.595037 Z M332.69956,247.975362 L379.862123,220.75944 L332.998294,193.539892 L285.83694,220.754605 L332.69956,247.975362 L332.69956,247.975362 Z M427.562891,247.980197 L474.732711,220.75944 L427.870092,193.541101 L380.700272,220.75944 L427.562891,247.980197 L427.562891,247.980197 Z M379.663772,330.359312 L426.833592,303.139764 L379.969764,275.919007 L332.801153,303.139764 L379.663772,330.359312 L379.663772,330.359312 Z M333.009179,193.057563 L380.177789,165.839224 L333.31517,138.618467 L286.145351,165.839224 L333.009179,193.057563 L333.009179,193.057563 Z M237.835018,247.978988 L285.004838,220.75944 L238.142219,193.539892 L190.972399,220.758231 L237.835018,247.978988 L237.835018,247.978988 Z M474.836724,275.439096 L522.006544,248.218339 L475.142715,221 L427.974105,248.218339 L474.836724,275.439096 L474.836724,275.439096 Z M332.38994,302.901622 L379.55976,275.680865 L332.697141,248.460108 L285.527321,275.680865 L332.38994,302.901622 L332.38994,302.901622 Z M190.252775,275.437887 L237.422595,248.21713 L190.559976,220.997582 L143.390156,248.21713 L190.252775,275.437887 L190.252775,275.437887 Z M284.807697,330.358104 L331.976307,303.139764 L285.113688,275.919007 L237.945078,303.138556 L284.807697,330.358104 L284.807697,330.358104 Z M332.08153,357.817003 L379.25014,330.598664 L332.387521,303.377907 L285.217701,330.597455 L332.08153,357.817003 L332.08153,357.817003 Z M143.281306,193.057563 L190.451125,165.838015 L143.587297,138.617258 L96.4186867,165.838015 L143.281306,193.057563 L143.281306,193.057563 Z M238.454257,138.137347 L285.624077,110.91659 L238.761458,83.6982505 L191.591638,110.91659 L238.454257,138.137347 L238.454257,138.137347 Z M190.562395,220.520089 L237.731005,193.30175 L190.868386,166.080993 L143.698566,193.300541 L190.562395,220.520089 L190.562395,220.520089 Z M285.735347,165.599873 L332.903957,138.380324 L286.041338,111.159567 L238.872728,138.380324 L285.735347,165.599873 L285.735347,165.599873 Z M142.978943,247.978988 L190.148763,220.758231 L143.286144,193.538683 L96.1163238,220.758231 L142.978943,247.978988 L142.978943,247.978988 Z M95.6978535,220.515253 L142.867673,193.296914 L96.0050542,166.076157 L48.8352345,193.295705 L95.6978535,220.515253 L95.6978535,220.515253 Z M285.108851,275.437887 L332.27867,248.218339 L285.416051,220.998791 L238.246232,248.21713 L285.108851,275.437887 L285.108851,275.437887 Z M380.283012,220.516462 L427.451622,193.298123 L380.589003,166.077366 L333.419183,193.298123 L380.283012,220.516462 L380.283012,220.516462 Z M237.526608,302.896787 L284.695218,275.67603 L237.832599,248.456482 L190.662779,275.67603 L237.526608,302.896787 L237.526608,302.896787 Z M284.077188,385.517671 L331.660641,358.059981 L284.796812,330.840433 L237.214569,358.299332 L284.077188,385.517671 L284.077188,385.517671 Z M236.803356,358.059981 L284.386808,330.60229 L237.524189,303.381533 L189.940737,330.840433 L236.803356,358.059981 L236.803356,358.059981 Z M142.249644,303.138556 L189.831886,275.679656 L142.969267,248.460108 L95.385815,275.917799 L142.249644,303.138556 L142.249644,303.138556 Z M47.6947217,248.21713 L95.2769644,220.758231 L48.4143454,193.538683 L0.830893212,220.997582 L47.6947217,248.21713 L47.6947217,248.21713 Z M94.975811,275.679656 L142.558054,248.221966 L95.6954346,221.002418 L48.1131919,248.458899 L94.975811,275.679656 L94.975811,275.679656 Z M189.523476,330.597455 L237.105719,303.138556 L190.2431,275.919007 L142.659648,303.376698 L189.523476,330.597455 L189.523476,330.597455 Z M570,221 L284.067513,386 L0,221.001209 L285.932487,56 L570,221 Z" id="bg" fill="url(#radialGradient-1)"></path><g id="lines" transform="translate(143.000000, 182.000000)"><path d="M139.881985,71.2025805 L225.945853,118.666712 L193.969235,137.748451" id="Path-2" stroke="#006CF9" stroke-dasharray="2"></path><path d="M138.672247,70.242149 L20.3816842,-2.06431363e-13 L0,10.7798858" id="Path-3" stroke="#006CF9" stroke-dasharray="2"></path><ellipse id="Oval" fill="#006CF9" cx="138.672247" cy="70.242149" rx="4.2340824" ry="4.23684211"></ellipse><line x1="138.672247" y1="70.242149" x2="25.8866411" y2="133.265538" id="Path-4" stroke="#006CF9" stroke-dasharray="2"></line><path d="M138.672247,70.242149 L197.544139,37.4146121 L291.703926,90.5326506 L322.041767,74.4789911" id="Path-5" stroke="#006CF9" stroke-dasharray="2"></path></g><g id="lock" transform="translate(256.000000, 0.000000)"><path d="M71.9368932,86.8545717 L38.1938835,106.555738 C37.6835922,106.856738 37.0166699,107.000072 36.351165,107.000072 C35.6849515,107.000072 35.0187379,106.856738 34.5084466,106.555738 L0.765436893,86.8545717 C0.255145631,86.5607383 0,86.1737383 0,85.7795717 C0,85.5000717 0.134660194,85.213405 0.403980583,84.9697383 C0.503203883,84.8765717 0.62368932,84.783405 0.765436893,84.7045717 L34.5084466,65.0105717 C35.5219417,64.4157383 37.173301,64.4157383 38.1938835,65.0105717 L71.9368932,84.7045717 C72.9503883,85.299405 72.9503883,86.266905 71.9368932,86.8545717" id="Fill-1" fill="#BEC5E3"></path><path d="M72.2367106,83.0683977 L38.3530673,102.560228 C37.8406493,102.858138 37.1709474,103 36.5026688,103 C35.8336786,103 35.1718053,102.858138 34.6593873,102.567321 L0.768627069,83.0683977 C0.256209023,82.7704877 0,82.3874604 0,82.0044332 C0,81.6143129 0.256209023,81.2312856 0.768627069,80.9404687 L6.14901655,77.8478784 L34.6522703,61.4415453 C35.6699895,60.8528182 37.3282313,60.8528182 38.3530673,61.4415453 L72.2367106,80.9404687 C73.2544298,81.5221026 73.2544298,82.4796707 72.2367106,83.0683977" id="Fill-4" fill="#DCEEFF"></path><path d="M36,94.4346959 L36,102 C35.3402223,102 34.6874634,101.860419 34.1821018,101.574277 L0.758042503,82.3888335 C0.252680834,82.0957129 0,81.7188435 0,81.3419741 L0,74.7886341 C0,74.5164506 0.133359329,74.2372881 0.400077988,74 L6.06434003,77.2522433 L36,94.4346959 Z" id="Fill-6" fill="#E8ECFF"></path><path d="M37,94.4346959 L37,102 C37.6590758,102 38.3125366,101.860419 38.8178982,101.574277 L72.2419575,82.3888335 C72.7473192,82.0957129 73,81.7188435 73,81.3419741 L73,74.7886341 C73,74.5164506 72.8666407,74.2372881 72.599922,74 L66.9349581,77.2522433 L37,94.4346959 Z" id="Fill-8" fill="#E0E5FA"></path><path d="M72.2367106,76.0613046 L38.3530673,95.560228 C37.8406493,95.8581381 37.1709474,96 36.5026688,96 C35.8336786,96 35.1646884,95.8581381 34.6522703,95.560228 L0.768627069,76.0613046 C0.256209023,75.7704877 0,75.3874604 0,74.9973401 C0,74.7207093 0.135221429,74.4369854 0.405664286,74.1958201 C0.505301128,74.1036099 0.626288723,74.0113996 0.768627069,73.9333756 L34.6522703,54.4415453 C35.6699895,53.8528182 37.3282313,53.8528182 38.3530673,54.4415453 L72.2367106,73.9333756 C73.2544298,74.5221026 73.2544298,75.4796707 72.2367106,76.0613046" id="Fill-10" fill="#F2F4FF"></path><path d="M36.4998221,54 C35.8301202,54 35.1611299,54.1475377 34.6522703,54.4419037 L0.768627069,73.9338985 C0.626288723,74.0112139 0.505301128,74.1041343 0.405664286,74.1963453 C0.135221429,74.4368034 0,74.7205296 0,74.9978721 C0,75.3879957 0.256209023,75.7703168 0.768627069,76.0618456 L34.6522703,95.5609336 C35.1646884,95.8588462 35.8329669,96 36.5026688,96 C37.1709474,96 37.8406493,95.8588462 38.3530673,95.5609336 L72.2367106,76.0618456 C73.2544298,75.4802067 73.2544298,74.5226305 72.2367106,73.9338985 L38.3530673,54.4419037 C37.8406493,54.1475377 37.169524,54 36.4998221,54 M36.4998221,54.7093157 C37.0684638,54.7093157 37.6136196,54.8355739 37.9972215,55.056171 L71.8794414,74.5467473 C72.1819104,74.7219483 72.2879524,74.9006958 72.2879524,75.0007093 C72.2879524,75.0993042 72.1819104,75.2752145 71.8808648,75.4468689 L37.9943747,94.9480848 C37.6193132,95.1658448 37.0762924,95.2906843 36.5026688,95.2906843 C35.9290453,95.2906843 35.3860245,95.1658448 35.0081162,94.9466662 L1.12091448,75.4454502 C0.868975603,75.3021685 0.71169173,75.1305141 0.71169173,74.9978721 C0.71169173,74.921266 0.775032294,74.8191245 0.890326355,74.7155644 C0.959360452,74.651726 1.03337639,74.597818 1.12447293,74.5481659 L35.0095396,55.0547524 C35.3888713,54.8355739 35.9326038,54.7093157 36.4998221,54.7093157" id="Fill-12" fill="#FFFFFF"></path><path d="M34.7755313,59.290203 L8.50742632,74.3002941 C7.83085789,74.6865318 7.83085789,75.3134682 8.50742632,75.6997059 L34.7762383,90.709797 C35.4520998,91.0967343 36.5486072,91.0967343 37.2251756,90.709797 L63.4925737,75.6997059 C64.1691421,75.3134682 64.1691421,74.6865318 63.4925737,74.3002941 L37.2244687,59.290203 C36.5486072,58.9032657 35.4520998,58.9032657 34.7755313,59.290203" id="Fill-14" fill="#344593"></path><path d="M63.4925865,74.463996 L37.2251447,59.2934814 C36.8865156,59.0975914 36.4432578,59 36,59 L36,60.2453513 L63.2812084,76 L63.4925865,75.8783643 C64.1691378,75.4879987 64.1691378,74.8543617 63.4925865,74.463996" id="Fill-16" fill="#1E3779"></path><path d="M36,59 C35.5567422,59 35.1134844,59.0975914 34.7755622,59.2927742 L8.50741351,74.4632888 C7.83086216,74.8536545 7.83086216,75.4872915 8.50741351,75.8776571 L8.71879162,76 L36,60.2446441 L36,59 Z" id="Fill-18" fill="#031F60"></path><polygon id="Fill-20" fill="#2685FE" points="22 51.8999275 42.3002142 40 51 45.1000725 30.7004997 57"></polygon><path d="M22,74.5471177 C22,76.4938923 23.384284,78.8616103 25.0912582,79.8353502 L27.6070998,81.2702239 C29.3147879,82.2432587 32.082642,82.2432587 33.7903301,81.2702239 L47.889466,73.2314054 C49.5964403,72.2576656 50.9821521,69.8906527 50.9835799,67.9431729 L51,45 L30.7004997,56.5755884 L22,51.6145212 L22,74.5471177 Z" id="Fill-22" fill="#006DF9"></path><path d="M25.1979321,79.7915719 L26.5,80.5231587 L27.8005908,81.2554648 C28.6838996,81.7518216 29.8412112,82 30.9985229,82 L31,56.0614007 L22,51 L22,74.3963893 C22,76.3825359 23.4313146,78.798139 25.1979321,79.7915719" id="Fill-24" fill="#187DFF"></path><path d="M40.5,59.4757724 C42.4327295,58.3647244 44,59.2658999 44,61.4887048 C44,63.7115098 42.4327295,66.4143271 40.5,67.5246661 C38.5665581,68.635005 37,67.7338295 37,65.5117336 C37,63.2889287 38.5665581,60.5868203 40.5,59.4757724" id="Fill-26" fill="#FFFFFF"></path><path d="M40,70.8085566 C40,71.7748192 40.4479359,72.2495514 40.9993839,71.8683049 C41.5520641,71.4870584 41.9993839,70.3951744 41.9993839,69.4289118 L42,60 L40,61.365768 L40,70.8085566 Z" id="Fill-28" fill="#FFFFFF"></path><path d="M28.8788327,50.4394339 C27.7070558,51.0253458 27.7070558,51.9745742 28.8788327,52.5604861 C30.0506095,53.146398 31.9501293,53.146398 33.1211673,52.5611257 C34.2929442,51.9752139 34.2929442,51.0259854 33.1211673,50.4394339 C31.9501293,49.853522 30.0506095,49.853522 28.8788327,50.4394339" id="Fill-30" fill="#0046C0"></path><path d="M39.8793056,44.4394339 C38.7068981,45.0253458 38.7068981,45.9745742 39.8793056,46.5604861 C41.0509742,47.146398 42.9503186,47.146398 44.1212485,46.5611257 C45.2929172,45.9752139 45.2929172,45.0259854 44.1212485,44.4394339 C42.9503186,43.853522 41.0509742,43.853522 39.8793056,44.4394339" id="Fill-32" fill="#0046C0"></path><path d="M28,40.7625413 L28,52 L33.665039,52 L33.665039,40.9495299 C33.665039,40.7004443 33.7982766,40.4701971 34.0138285,40.3453054 L38.8103816,37.5760596 C39.043373,37.4420976 39.3335659,37.6095501 39.3335659,37.8781718 L39.3335659,45.4553978 L44.9993024,45.4553978 L45,34.1035132 C45,30.4474667 42.4105868,28.9522554 39.2449733,30.7802786 L31.020517,35.5296504 C29.3588839,36.4890137 28,38.8438146 28,40.7625413" id="Fill-34" fill="#0046C0"></path><path d="M38.0251,15.4897519 C37.4994,15.8269457 36.8827,15.9496899 36.2051,15.9271163 C36.1946,15.9271163 36.1855,15.9257054 36.1757,15.9257054 C36.1848,15.9257054 36.1932,15.9271163 36.2023,15.9271163 L36.2023,90.4815116 C36.6069,90.4815116 37.0108,90.3841628 37.4154,90.1894651 L63.216,75.1786977 C63.6955,74.9113411 63.9272,74.6757287 63.9272,74.3512326 L63.9272,0.42396124 L38.0251,15.4897519 Z" id="Fill-36" fill="url(#linearGradient-2)" opacity="0.5"></path><path d="M36.4702195,15.9257054 C36.3117805,15.9278217 36.1575854,15.9228837 36.0062195,15.9073643 C35.9963171,15.9066589 35.987122,15.9038372 35.9779268,15.9031318 C35.8279756,15.886907 35.6808537,15.8636279 35.5379756,15.8297674 C35.4431951,15.8078992 35.3533659,15.7747442 35.262122,15.7451163 C35.2055366,15.7267752 35.1468293,15.7140775 35.0916585,15.6929147 C34.9466585,15.637186 34.8051951,15.5722868 34.6679756,15.4968062 L8.4845122,0.421844961 L8.4845122,74.3505271 C8.49582927,74.6503333 8.68256098,74.8788915 8.99165854,75.0566589 L35.275561,90.1915814 C35.6709512,90.3799302 36.0677561,90.4723411 36.4631463,90.4779845 C36.4751707,90.4779845 36.4857805,90.4815116 36.4970976,90.4815116 L36.4970976,15.9271163 C36.4879024,15.9271163 36.4794146,15.9257054 36.4702195,15.9257054" id="Fill-39" fill="url(#linearGradient-3)" opacity="0.5"></path></g><g id="main" transform="translate(202.000000, 73.000000)"><ellipse id="shadow" fill="url(#radialGradient-4)" opacity="0.95" filter="url(#filter-5)" transform="translate(80.102564, 179.200000) rotate(-330.000000) translate(-80.102564, -179.200000) " cx="80.1025641" cy="179.2" rx="60.6479578" ry="15.7499746"></ellipse><path d="M30.6765487,4.39261494 L19.4188034,10.9253721 C31.268043,4.04961198 47.6774737,5.01944078 65.7863922,15.4580838 L65.7863922,15.4580838 C101.780453,36.2073475 130.856813,86.4923065 130.739482,127.790346 L130.739482,127.790346 C130.681421,148.298059 123.42987,162.729546 111.73425,169.514724 L111.73425,169.514724 L122.993205,162.980759 C134.688825,156.195581 141.940376,141.765302 142,121.257589 L142,121.257589 C142.116977,79.9595494 113.040618,29.6745904 77.0465566,8.92532663 L77.0465566,8.92532663 C66.5411824,2.86963347 56.6103682,0.00121081081 47.8069009,0.00121081081 L47.8069009,0.00121081081 C41.4347292,0.00121081081 35.6528422,1.50486817 30.6765487,4.39261494" id="Fill-2" fill="url(#linearGradient-6)"></path><path d="M0,52.4346711 C-0.1188568,93.9501206 29.1350318,144.519445 65.3243559,165.379186 L65.3243559,165.379186 C101.525845,186.244998 130.958564,169.499883 131.076923,127.984434 L131.076923,127.984434 C131.194571,86.4568394 101.951631,35.8923725 65.7513578,15.0277744 L65.7513578,15.0277744 C55.1882309,8.93963526 45.1968728,6.05405405 36.3441865,6.05405405 L36.3441865,6.05405405 C14.867572,6.05162511 0.0830871226,23.0274896 0,52.4346711" id="Fill-5" fill="url(#linearGradient-7)"></path><path d="M70.181012,86.7077362 L70.2041228,78.5698768 C70.2210632,72.5836281 65.9877641,65.2606443 60.7653197,62.2529903 C55.5428752,59.2441254 51.2743795,61.6705903 51.2586017,67.6580497 L51.2355419,75.7946984 L70.181012,86.7077362 L70.181012,86.7077362 Z M76.6899521,90.4564065 C79.6270462,92.1479092 82.0131316,96.2719308 82.0034517,99.6391957 L81.9233197,128.135628 C81.9136103,131.501682 79.5105333,132.867477 76.574653,131.177185 L44.6100889,112.765596 C41.6729949,111.074093 39.2941915,106.954915 39.3038712,103.58765 L39.3852171,75.0900065 C39.3949265,71.7239524 41.788294,70.3533146 44.725388,72.0460281 L46.4997812,73.0667416 L46.522841,64.9313038 C46.5483282,55.9410335 52.9395419,52.3086011 60.7810974,56.8249254 C68.6153709,61.3376173 74.964106,72.3075632 74.9386188,81.2966227 L74.915559,89.4344822 L76.6899521,90.4564065 Z" id="Fill-8" fill="#FFFFFF"></path></g><g id="bank" transform="translate(77.000000, 136.000000)"><ellipse id="shadow" fill="url(#radialGradient-8)" opacity="0.75" filter="url(#filter-9)" transform="translate(41.500000, 95.400000) rotate(-330.000000) translate(-41.500000, -95.400000) " cx="41.5" cy="95.4" rx="41.4750016" ry="10.8066104"></ellipse><path d="M20.7870428,2.25368066 L15,5.60627834 C21.090578,2.07893484 29.5245199,2.57614975 38.8329321,7.93382064 L38.8329321,7.93382064 C57.3305107,18.5825068 72.2741982,44.3908434 72.2145752,65.5873315 L72.2145752,65.5873315 C72.1838604,76.1135154 68.4583273,83.5176941 62.4454399,87 L62.4454399,87 L68.2324827,83.6474023 C74.2435634,80.1650964 77.9709032,72.7591162 78,62.2329323 L78,62.2329323 C78.061241,41.0382457 63.1175535,15.2299091 44.6181682,4.57942145 L44.6181682,4.57942145 C39.2195781,1.47182822 34.1154895,0 29.5913699,0 L29.5913699,0 C26.3157194,0 23.3454108,0.772844926 20.7870428,2.25368066" id="Fill-1" fill="url(#linearGradient-10)"></path><path d="M38.6093323,7.58500784 C20.110472,-3.07234711 5.05981656,5.48022984 5,26.69935 C4.94053904,47.9130594 19.8917965,73.7547554 38.3906568,84.4121104 C56.8949388,95.0748761 71.9401725,86.518692 72,65.3049825 C72.0612572,44.0840588 57.1136143,18.24597 38.6093323,7.58500784" id="Fill-4" fill="#F9FAFF"></path><path d="M38.9874168,57.0509939 C41.1579052,58.3000782 42.9389125,57.2895217 42.9462493,54.7913532 C42.9535409,52.3077512 41.1853334,49.2560527 39.0130165,48.0069684 L37.005269,46.852567 C35.8605969,46.19525 34.9298652,44.5892846 34.9335223,43.281934 C34.9371794,41.9727626 35.8733968,41.4410824 37.0180689,42.0983994 L41.0353924,44.4072023 C41.5473863,44.7021756 41.9697812,44.4763936 41.9716098,43.8755222 C41.9734383,43.2855757 41.5547005,42.5645299 41.040878,42.2695567 L38.9618171,41.0750971 L38.9691313,38.6971029 C38.9709598,38.1089772 38.552222,37.3861107 38.0383995,37.0911374 C37.5117773,36.7888809 37.0912108,37.0292295 37.0893823,37.6155343 L37.0820681,39.9935285 L37.0235545,39.9607537 C34.8402663,38.706207 33.0610875,39.7149427 33.0537507,42.2003654 C33.0464591,44.6985339 34.8146666,47.7502325 36.9979548,49.0047792 L39.0075308,50.1591807 C40.1503743,50.8164976 41.0701348,52.4006132 41.0664777,53.7116054 C41.0628206,55.0207768 40.1375745,55.5597403 38.9929024,54.9006025 L34.9774075,52.5917996 C34.4526137,52.289543 34.0302188,52.5298916 34.0283902,53.1161964 C34.0265617,53.7188887 34.4452995,54.4399344 34.9719218,54.7421909 L37.0381829,55.9311881 L37.0308687,58.2964365 C37.0290402,58.8973079 37.447778,59.6183537 37.9725718,59.9206102 C38.4863942,60.2155834 38.9087892,59.9752349 38.9106177,59.3743634 L38.9161034,57.0127566 L38.9874168,57.0509939 M38.0585136,30.1975034 C42.331834,32.6556138 46.3418433,36.859893 49.3552931,42.0601621 C52.3577716,47.2495063 54.0144375,52.8048358 53.9999052,57.6955651 C53.9870093,62.5844735 52.3029151,66.2188353 49.2821511,67.9467959 C46.2485873,69.669294 42.2257782,69.2705338 37.9542863,66.8124234 C33.6809658,64.3579547 29.6581567,60.1300048 26.6556782,54.9406606 C23.6422284,49.7403915 21.9855625,44.1868828 22.0000948,39.2979743 C22.0129907,34.4072451 23.6970849,30.7710625 26.7288202,29.0503852 C29.7514127,27.3224246 33.7851931,27.7412138 38.0585136,30.1975034" id="Fill-7" fill="url(#linearGradient-11)"></path></g><g id="medicine" transform="translate(105.000000, 262.000000)"><ellipse id="shadow" fill="url(#radialGradient-12)" opacity="0.75" filter="url(#filter-13)" transform="translate(32.890909, 77.714286) rotate(-330.000000) translate(-32.890909, -77.714286) " cx="32.8909091" cy="77.7142857" rx="32.8646126" ry="8.50694276"></ellipse><path d="M23.8057091,-0.000121428571 C20.9478545,0.00959285714 18.3543455,0.687164286 16.1202,1.98159286 L16.1202,1.98159286 L11.0306364,4.93109286 C16.3869818,1.82737857 23.8069273,2.26573571 31.9931091,6.97716429 L31.9931091,6.97716429 C48.2655818,16.3417357 61.4109818,39.0367357 61.3586,57.6748071 L61.3586,57.6748071 C61.3318,66.9313071 58.0524545,73.4447357 52.7655455,76.5071643 L52.7655455,76.5071643 L57.8563273,73.5588786 C63.1432364,70.4952357 66.4213636,63.9818071 66.4481636,54.7265214 L66.4481636,54.7265214 L66.4481636,54.5067357 C66.3957818,35.90995 53.2918,13.3558071 37.0838909,4.02766429 L37.0838909,4.02766429 C32.3670909,1.31373571 27.9073273,0.0180928571 23.9482364,-0.000121428571 L23.9482364,-0.000121428571 L23.8057091,-0.000121428571 Z" id="Fill-1" fill="url(#linearGradient-14)"></path><path d="M31.9929873,6.45623571 C15.7253873,-2.90590714 2.48984182,4.60809286 2.43608586,23.2461643 C2.38386,41.8793786 15.5329145,64.5768071 31.8017327,73.93895 C48.0742055,83.3047357 61.3048782,75.7895214 61.3574233,57.1550929 C61.41086,38.5158071 48.26546,15.8220214 31.9929873,6.45623571" id="Fill-1" fill="#F9FAFF"></path><path d="M22.2045309,26.7864143 L39.6574218,36.8309857 C41.2520218,37.7489857 43.11584,39.8654857 43.1073419,42.7870571 L43.0719855,55.2674857 C43.0634582,58.1902714 41.1935491,58.1574857 39.5989491,57.2394857 L22.1460582,47.1961286 C20.5514582,46.2781286 18.68764,44.1616286 18.6961381,41.2400571 L18.7327127,28.7584143 C18.7400218,25.8368429 20.6099309,25.8684143 22.2045309,26.7864143 Z M28.6913491,35.6859143 L28.6852582,38.0294857 L26.6399309,36.8516286 C26.2269673,36.6148429 25.8919673,36.8054857 25.8895309,37.2778429 L25.8810036,40.6535571 C25.8870945,41.1307714 26.2208764,41.7051286 26.6326218,41.9431286 L28.67064,43.1149143 L28.6633309,45.4584857 C28.6621127,45.9308429 28.9958945,46.5064143 29.40764,46.7444143 L32.35564,48.4395571 C32.7759127,48.6812 33.1109127,48.4905571 33.1133491,48.0194143 L33.11944,45.6770571 L35.1647673,46.8537 C35.5777309,47.0904857 35.9127309,46.9010571 35.9139491,46.4274857 L35.9236945,43.0517714 C35.9163855,42.5660571 35.5838218,42.0002 35.1720764,41.7622 L33.1255309,40.5843429 L33.13284,38.2419857 C33.1340582,37.7696286 32.8002764,37.1940571 32.3885309,36.9572714 L29.4405309,35.2609143 C29.0287855,35.0229143 28.6925673,35.2147714 28.6913491,35.6859143 Z M29.6940345,36.5581357 L32.1364891,37.9630643 L32.12918,40.5907786 C32.1279618,40.90285 32.3447982,41.2865643 32.62498,41.4480643 L34.9200345,42.7679929 L34.9115073,45.5572071 L32.6091436,44.2312071 C32.3374891,44.0745643 32.1109073,44.2044929 32.1096891,44.5141357 L32.10238,47.1430643 L29.6672345,45.7417786 L29.6757618,43.1140643 C29.6757618,42.8019929 29.4516164,42.4146357 29.1799618,42.2579929 L26.8849073,40.93685 L26.8934345,38.14885 L29.1872709,39.4687786 C29.4601436,39.6254214 29.6855073,39.4979214 29.6867255,39.18585 L29.6940345,36.5581357 Z M27.2222218,24.4644571 L27.2526764,24.4668857 L27.2526764,24.4668857 C27.26364,24.4681 27.2758218,24.4705286 27.2867855,24.4717429 C27.2965309,24.4729571 27.3074945,24.4741714 27.31724,24.4766 C27.3294218,24.4778143 27.3416036,24.4814571 27.3537855,24.4838857 C27.3647491,24.4851 27.3744945,24.4875286 27.38424,24.4899571 C27.39764,24.4923857 27.41104,24.4972429 27.42444,24.5008857 L27.4524582,24.5069571 L27.4524582,24.5069571 C27.4695127,24.5118143 27.4877855,24.5178857 27.5060582,24.5239571 C27.5170218,24.5288143 27.5304218,24.5324571 27.5426036,24.5373143 C27.55844,24.5433857 27.5742764,24.5494571 27.5913309,24.5555286 C27.6010764,24.5591714 27.61204,24.5640286 27.6217855,24.5688857 L27.6632036,24.5871 C27.6729491,24.5931714 27.6839127,24.5980286 27.6948764,24.6028857 C27.7082764,24.6089571 27.7204582,24.6150286 27.7350764,24.6235286 C27.74604,24.6296 27.7582218,24.6356714 27.7691855,24.6417429 C27.7813673,24.6490286 27.7947673,24.6563143 27.8081673,24.6623857 C27.8349673,24.6793857 27.8617673,24.6963857 27.8897855,24.7121714 L34.0026218,28.2311714 L34.1658582,28.3246714 C34.9747309,28.8443857 35.5874764,29.9906714 35.5375309,30.8807429 L35.5302218,33.4647429 L34.52644,32.8879571 L34.5337491,30.3039571 C34.5349673,30.1339571 34.5361855,29.6895286 33.9989673,29.3798857 L27.8861309,25.8621 C27.3489127,25.5536714 27.3476945,25.9993143 27.3476945,26.1681 L27.3403855,28.7521 L26.3366036,28.1741 L26.3451309,25.5901 L26.3451309,25.4043143 C26.3463491,25.3751714 26.3487855,25.3496714 26.3512218,25.3217429 C26.35244,25.3132429 26.3536582,25.3047429 26.3548764,25.2950286 C26.3560945,25.2780286 26.3585309,25.2610286 26.3609673,25.2452429 C26.3621855,25.2343143 26.3646218,25.2246 26.3670582,25.2148857 C26.3694945,25.2003143 26.3719309,25.1845286 26.3743673,25.1699571 C26.3768036,25.1602429 26.37924,25.1505286 26.3816764,25.1396 C26.3841127,25.1262429 26.3877673,25.1116714 26.3914218,25.0995286 L26.3999491,25.0679571 L26.3999491,25.0679571 C26.4036036,25.0570286 26.4072582,25.0436714 26.4109127,25.0315286 C26.4145673,25.0218143 26.4170036,25.0121 26.4206582,25.0048143 C26.4255309,24.9914571 26.4291855,24.9793143 26.4340582,24.9671714 C26.4377127,24.9598857 26.4413673,24.9501714 26.4450218,24.9416714 C26.4498945,24.9295286 26.4547673,24.9186 26.45964,24.9076714 L26.46634,24.8949214 L26.46634,24.8949214 L26.47304,24.8821714 C26.4779127,24.8712429 26.4840036,24.8603143 26.4888764,24.8518143 L26.5034945,24.8263143 L26.5217673,24.7983857 C26.52664,24.7898857 26.5315127,24.7826 26.5363855,24.7753143 C26.5436945,24.7656 26.5497855,24.7571 26.5558764,24.7486 L26.5741491,24.7267429 C26.58024,24.7182429 26.5863309,24.7097429 26.59364,24.7036714 C26.5997309,24.6963857 26.6058218,24.6903143 26.6119127,24.6830286 C26.6192218,24.6757429 26.6265309,24.6684571 26.63384,24.6611714 C26.6399309,24.6563143 26.64724,24.6490286 26.6533309,24.6429571 C26.66064,24.6368857 26.6679491,24.6296 26.6764764,24.6235286 L26.6863741,24.6145732 L26.6863741,24.6145732 L26.6971855,24.6065286 C26.7044945,24.6016714 26.7130218,24.5956 26.7215491,24.5895286 C26.7288582,24.5846714 26.7361673,24.5798143 26.7434764,24.5749571 C26.7520036,24.5688857 26.7605309,24.5640286 26.7690582,24.5591714 L26.7801741,24.5531 L26.7801741,24.5531 L26.7922036,24.5470286 C26.8007309,24.5421714 26.8092582,24.5373143 26.8177855,24.5336714 C26.8263127,24.5300286 26.8336218,24.5251714 26.8421491,24.5215286 C26.8518945,24.5178857 26.8604218,24.5142429 26.8701673,24.5106 C26.8786945,24.5069571 26.8860036,24.5045286 26.8945309,24.5021 C26.9054945,24.4996714 26.91524,24.4960286 26.9249855,24.4936 C26.9335127,24.4911714 26.9408218,24.4887429 26.9505673,24.4863143 L26.9810218,24.4790286 L26.9810218,24.4790286 L27.0066036,24.4729571 L27.0066036,24.4729571 C27.0175673,24.4717429 27.0273127,24.4705286 27.0382764,24.4693143 L27.0518286,24.4670375 L27.0518286,24.4670375 L27.0662945,24.4656714 C27.07604,24.4644571 27.0870036,24.4632429 27.0979673,24.4632429 L27.1119764,24.4621804 L27.1119764,24.4621804 L27.1881127,24.4620286 C27.1990764,24.4620286 27.2112582,24.4632429 27.2222218,24.4644571 Z" id="Combined-Shape" fill="url(#linearGradient-15)"></path></g><g id="hat" transform="translate(288.000000, 289.000000)"><ellipse id="shadow" fill="url(#radialGradient-16)" opacity="0.75" filter="url(#filter-17)" transform="translate(28.000000, 55.492063) rotate(-330.000000) translate(-28.000000, -55.492063) " cx="28" cy="55.4920635" rx="27.936523" ry="7.25550916"></ellipse><path d="M22.3866087,0.000603174603 C20.3754783,0.0102539683 18.5506087,0.486761905 16.9765217,1.39273016 L16.9765217,1.39273016 L13.3791304,3.4652381 C17.1652174,1.28415873 22.4085217,1.59177778 28.196,4.902 L28.196,4.902 C39.697913,11.4826349 48.9878261,27.4293651 48.9513043,40.5266984 L48.9513043,40.5266984 C48.9330435,47.030127 46.6163478,51.6070159 42.8789565,53.7579365 L42.8789565,53.7579365 L46.4763478,51.6878413 C50.2137391,49.5345079 52.5304348,44.9588254 52.5486957,38.4541905 L52.5486957,38.4541905 L52.5486957,38.2997778 C52.5133913,25.2313968 43.2514783,9.386 31.7933913,2.83069841 L31.7933913,2.83069841 C28.4662609,0.927079365 25.3193043,0.0162857143 22.5253913,0.000603174603 L22.5253913,0.000603174603 L22.3866087,0.000603174603 Z" id="Fill-1" fill="url(#linearGradient-18)"></path><path d="M28.1957565,4.9023619 C16.6974957,-1.67586032 7.34184348,3.60312381 7.30399707,16.6992508 C7.26758261,29.7929651 16.5611478,45.7421079 28.0606261,52.3203302 C39.5625391,58.9009651 48.9145391,53.6195683 48.9511754,40.525854 C48.9888,27.429727 39.6976696,11.4829968 28.1957565,4.9023619" id="Fill-4" fill="#F9FAFF"></path><path d="M17.4786957,19.5248825 L26.9414783,20.8784063 C26.9828696,20.8844381 27.0254783,20.8928825 27.0693043,20.901327 C27.118,20.9121841 27.1618261,20.9230413 27.2068696,20.9363111 C27.2616522,20.9507873 27.3066957,20.9664698 27.3529565,20.9821524 C27.4126087,21.001454 27.4588696,21.0183429 27.5051304,21.0376444 C27.5696522,21.0617714 27.6171304,21.0822794 27.6646087,21.1027873 C27.7303478,21.1317397 27.7778261,21.153454 27.8265217,21.1763746 C27.8971304,21.2101524 27.9446087,21.2354857 27.9933043,21.2596127 C28.0626957,21.2970095 28.1113913,21.3223429 28.160087,21.3512952 C28.2148696,21.381454 28.2477391,21.4007556 28.2806087,21.4188508 L28.3573043,21.4646921 C28.3853043,21.4827873 28.4145217,21.5008825 28.4437391,21.5189778 C28.4693043,21.5346603 28.4948696,21.5515492 28.5192174,21.5660254 C28.5496522,21.5865333 28.5788696,21.6058349 28.6093043,21.6251365 C28.6324348,21.6420254 28.6567826,21.6565016 28.679913,21.6733905 C28.7103478,21.6938984 28.7395652,21.7144063 28.7687826,21.7361206 C28.7906957,21.7530095 28.8150435,21.7686921 28.8381739,21.785581 C28.8673913,21.8072952 28.8953913,21.8290095 28.9246087,21.8519302 C28.9465217,21.8676127 28.9684348,21.8845016 28.9891304,21.9013905 C29.0195652,21.9243111 29.05,21.9496444 29.0792174,21.9737714 C29.0986957,21.9882476 29.1181739,22.0039302 29.1364348,22.0184063 C29.1693043,22.0461524 29.1997391,22.0738984 29.2313913,22.1016444 C29.3202609,22.1800571 29.364087,22.221073 29.4054783,22.2608825 L38.5821739,31.2445651 C39.164087,31.8163746 39.2493043,32.2458349 38.8597391,32.3338984 L38.856087,38.9712317 L39.4331304,41.4466603 L37.8164348,40.5213905 L38.3825217,38.7263429 L38.4007826,32.3278667 L29.3482609,31.493073 C29.3093043,31.489454 29.267913,31.4834222 29.2253043,31.4761841 C29.1766087,31.4665333 29.134,31.4580889 29.0913913,31.4484381 C29.0341739,31.4339619 28.9915652,31.4206921 28.9477391,31.4074222 C28.8856522,31.3881206 28.8418261,31.3724381 28.7955652,31.3567556 C28.7298261,31.3326286 28.6847826,31.3145333 28.6397391,31.2964381 C28.5691304,31.2662794 28.5228696,31.2457714 28.4766087,31.2240571 C28.4072174,31.1914857 28.3597391,31.1673587 28.3122609,31.1444381 C28.2416522,31.1070413 28.1941739,31.0829143 28.1454783,31.0551683 C28.0894783,31.0250095 28.0553913,31.0045016 28.0213043,30.9852 C27.9957391,30.9695175 27.9701739,30.9538349 27.9433913,30.9393587 C27.9166087,30.9212635 27.8886087,30.9043746 27.8606087,30.8874857 C27.8350435,30.8705968 27.8094783,30.8549143 27.7851304,30.8392317 C27.7571304,30.8211365 27.7303478,30.8018349 27.7035652,30.784946 C27.678,30.7680571 27.6524348,30.7511683 27.6268696,30.733073 C27.600087,30.7137714 27.5733043,30.6956762 27.5477391,30.6763746 L27.5112174,30.6498349 L27.5112174,30.6498349 L27.4746957,30.6232952 C27.447913,30.6027873 27.4211304,30.5834857 27.3955652,30.5617714 L27.3261739,30.5086921 L27.3261739,30.5086921 C27.2993913,30.4881841 27.2738261,30.4664698 27.2482609,30.4447556 C27.2263478,30.4266603 27.2056522,30.4097714 27.1849565,30.3928825 C27.1557391,30.3663429 27.1265217,30.3410095 27.0985217,30.3156762 C27.006,30.2312317 26.9646087,30.1914222 26.9232174,30.1492 L17.4677391,20.5828508 C16.7933043,19.8940254 16.8018261,19.4307873 17.4786957,19.5248825 Z M20.8393043,26.0122667 L22.7591304,27.1112508 L26.6791304,31.0729016 C27.1685217,31.5747429 27.7041739,31.9257905 28.0693913,32.1344889 C28.637913,32.4602032 29.182087,32.6556317 29.602087,32.701473 L33.0813913,33.0163302 L35.2033043,34.2311238 L35.1947826,36.9116317 C35.1923478,37.7355683 34.6542609,38.3664889 33.9846957,38.3037587 L29.182087,37.921346 C29.1406957,37.9189333 29.0968696,37.9129016 29.0518261,37.9044571 C28.917913,37.8827429 28.7706087,37.8405206 28.616,37.7826159 C28.5125217,37.745219 28.4078261,37.6993778 28.2994783,37.6487111 C28.1923478,37.5968381 28.0827826,37.5389333 27.9744348,37.4762032 C27.9196522,37.4460444 27.8648696,37.4122667 27.810087,37.3796952 C27.7017391,37.3121397 27.5946087,37.2409651 27.4886957,37.1649651 C27.4363478,37.1275683 27.384,37.0889651 27.3328696,37.0491556 C27.1794783,36.9309333 27.0346087,36.8042667 26.9006957,36.6751873 C26.8568696,36.6317587 26.8130435,36.5883302 26.7728696,36.5436952 L22.029913,31.4722032 C21.3627826,30.7628698 20.8283478,29.5167111 20.8307743,28.6951873 L20.8393043,26.0122667 Z" id="Combined-Shape" fill="url(#linearGradient-19)"></path></g><g id="Government" transform="translate(430.000000, 178.000000)"><ellipse id="shadow" fill="url(#radialGradient-12)" opacity="0.75" filter="url(#filter-20)" transform="translate(32.890909, 77.714286) rotate(-330.000000) translate(-32.890909, -77.714286) " cx="32.8909091" cy="77.7142857" rx="32.8646126" ry="8.50694276"></ellipse><path d="M24.6852364,0.000485714286 C21.8980364,0.0247714286 19.3678727,0.693842857 17.1836727,1.95912857 L17.1836727,1.95912857 L12.1513636,4.87462857 C17.4480182,1.80734286 24.7826909,2.23841429 32.8775091,6.89884286 L32.8775091,6.89884286 C48.9660364,16.1565571 61.9628182,38.5941286 61.9104364,57.0245571 L61.9104364,57.0245571 C61.8848545,66.1754143 58.6420545,72.6135571 53.4148364,75.6419857 L53.4148364,75.6419857 L58.4471455,72.7277 C63.6755818,69.6992714 66.9171636,63.2599143 66.9416925,54.1078429 L66.9416925,54.1078429 C66.9951273,35.6798429 53.9983455,13.2422714 37.9098182,3.98212857 L37.9098182,3.98212857 C33.2770727,1.31555714 28.8940545,0.0332714286 24.9983091,0.000485714286 L24.9983091,0.000485714286 L24.6852364,0.000485714286 Z" id="Fill-1" fill="url(#linearGradient-21)"></path><path d="M32.8775091,6.89787143 C16.7926364,-2.35862857 3.70692727,5.06915714 3.65438773,23.4971571 C3.60216364,41.9203 16.6038182,64.3615143 32.6874727,73.6180143 C48.7772182,82.8769429 61.8580545,75.4467286 61.9105941,57.0235857 C61.9628182,38.5955857 48.9660364,16.1568 32.8775091,6.89787143" id="Fill-4" fill="#F9FAFF"></path><path d="M21.2413145,43.9131857 L44.5597509,57.3334714 C44.9641873,57.5654 45.2821327,58.1227571 45.280918,58.5769 L45.2736055,60.7966143 C45.2723873,61.2592571 44.9520055,61.4499 44.5475691,61.2167571 L21.2315691,47.7976857 C20.8271327,47.5645429 20.5079691,47.0071857 20.5091838,46.5433286 L20.5164964,44.3260429 C20.5177145,43.8719 20.8368782,43.6812571 21.2413145,43.9131857 Z M39.72564,44.914 L42.6261309,46.5836429 L42.6042036,54.5396429 L39.7024945,52.87 L39.72564,44.914 Z M34.2271327,41.7490857 L37.1276236,43.4187286 L37.1056964,51.3747286 L34.2039873,49.7050857 L34.2271327,41.7490857 Z M28.7286255,38.5852643 L31.6291164,40.2549071 L31.6071891,48.2096929 L28.70548,46.54005 L28.7286255,38.5852643 Z M22.2744545,31.5425286 L43.6011636,43.8165286 L43.5987273,44.6434571 C43.5975091,45.0988143 43.2686,45.2858143 42.8726909,45.0563143 L22.9931818,33.6153143 C22.5960545,33.3870286 22.2708,32.8248143 22.2720148,32.3706714 L22.2744545,31.5425286 Z M23.2296309,35.4202286 L26.1386491,37.0947286 L26.1155036,45.0495143 L23.2064855,43.3762286 L23.2296309,35.4202286 Z M32.7263327,26.0359857 C32.8055145,26.0505571 32.8871327,26.0821286 32.9699691,26.1294857 C33.0528055,26.1768429 33.1356418,26.2399857 33.2136055,26.3164857 C33.2623327,26.3626286 33.3074055,26.4124143 33.35126,26.4682714 L44.9873327,41.4003429 C45.2662964,41.7573429 45.3893327,42.2127 45.3016236,42.5199143 C45.2163509,42.8271286 44.9276418,42.9109143 44.6011691,42.7227 L21.2839509,29.3036286 C20.95626,29.1154143 20.6699873,28.7001286 20.5847145,28.2945571 C20.50066,27.8889857 20.6261327,27.5769143 20.9063145,27.5429143 L32.5886782,26.0299143 C32.6325327,26.0250571 32.6788236,26.0274388 32.7263327,26.0359857 Z M31.7335111,31.1505571 C31.7322964,31.6047 32.0563327,32.1669143 32.4607691,32.3988429 L33.4414055,32.9634857 C33.8458418,33.1954143 34.1747509,33.0096286 34.1759725,32.5554857 C34.1771873,32.0916286 33.8507145,31.5294143 33.4462782,31.2974857 L32.4656418,30.7328429 C32.0612055,30.5009143 31.7347327,30.6867 31.7335111,31.1505571 Z" id="Combined-Shape" fill="url(#linearGradient-22)"></path></g><g id="man" transform="translate(352.000000, 53.000000)"><path d="M62.4938,81.4089 L39.2558,67.9919 C37.8208,67.1639 35.4938,67.1639 34.0588,67.9919 L10.8208,81.4089 C9.3868,82.2379 9.3868,83.5809 10.8208,84.4089 L34.0588,97.8259 C35.4938,98.6539 37.8198,98.6539 39.2558,97.8259 L62.4938,84.4089 C63.9288,83.5799 63.9288,82.2379 62.4938,81.4089" id="Fill-1" fill="#BEC5E3"></path><path d="M27.4987,94.3601 L19.3287,89.6431 C13.7867,86.4441 6.1347,85.6751 2.2357,87.9261 C-1.6633,90.1771 -0.3313,94.5951 5.2097,97.7951 L13.3797,102.5111 C18.9217,105.7121 26.5737,106.4801 30.4737,104.2291 C34.3717,101.9781 33.0407,97.5591 27.4987,94.3601" id="Fill-4" fill="#BEC5E3"></path><path d="M10.2926,55.3205 L33.5306,41.9035 C34.9666,41.0755 37.2926,41.0755 38.7276,41.9035 L61.9656,55.3205 C63.4006,56.1495 63.4006,57.4915 61.9656,58.3205 L38.7276,71.7375 C37.2926,72.5655 34.9666,72.5655 33.5306,71.7375 L10.2926,58.3205 C8.8576,57.4915 8.8576,56.1485 10.2926,55.3205" id="Fill-7" fill="#F2F4FF"></path><path d="M36.1295,41.2825 C35.1895,41.2825 34.2485,41.4895 33.5305,41.9035 L10.2925,55.3205 C8.8585,56.1485 8.8585,57.4915 10.2925,58.3205 L33.5305,71.7375 C34.2485,72.1515 35.1895,72.3585 36.1295,72.3585 C37.0695,72.3585 38.0095,72.1515 38.7275,71.7375 L61.9655,58.3205 C63.4005,57.4915 63.4005,56.1495 61.9655,55.3205 L38.7275,41.9035 C38.0095,41.4895 37.0695,41.2825 36.1295,41.2825 M36.1295,42.2825 C36.9265,42.2825 37.6915,42.4605 38.2275,42.7695 L61.4655,56.1865 C61.8915,56.4325 62.0415,56.6815 62.0415,56.8205 C62.0415,56.9595 61.8915,57.2085 61.4655,57.4545 L38.2275,70.8705 C37.6915,71.1805 36.9265,71.3585 36.1295,71.3585 C35.3325,71.3585 34.5675,71.1805 34.0305,70.8705 L10.7925,57.4545 C10.3675,57.2095 10.2165,56.9595 10.2165,56.8205 C10.2165,56.6815 10.3675,56.4315 10.7925,56.1865 L34.0305,42.7695 C34.5675,42.4605 35.3325,42.2825 36.1295,42.2825" id="Fill-9" fill="#FFFFFF"></path><path d="M9.2164,80.2722 C9.2304,80.8922 9.6324,81.3772 10.2924,81.7722 L33.5304,95.1892 C34.2014,95.5772 35.0574,95.7942 36.1294,95.8102 L36.1294,72.3562 C35.1104,72.3502 34.2464,72.1402 33.5304,71.7372 L10.2924,58.3202 C9.7154,57.9892 9.2164,57.4962 9.2164,56.8202 L9.2164,80.2722 Z" id="Fill-11" fill="#E8ECFF"></path><path d="M63.0426,80.2722 C63.0296,80.8922 62.6266,81.3772 61.9666,81.7722 L38.7286,95.1892 C38.0576,95.5772 37.2016,95.7942 36.1296,95.8102 L36.1296,72.3562 C37.1486,72.3502 38.0126,72.1402 38.7286,71.7372 L61.9666,58.3202 C62.5436,57.9892 63.0426,57.4962 63.0426,56.8202 L63.0426,80.2722 Z" id="Fill-13" fill="url(#linearGradient-23)"></path><path d="M4.2018,42.5051 C5.0768,42.5201 5.8398,42.2051 7.0688,42.3231 C8.1518,42.4281 8.8608,42.4611 9.8578,42.2801 C10.8558,42.1001 13.4998,39.8561 15.6168,37.7631 C18.1148,35.2951 20.2958,31.6451 20.8888,29.7701 C21.8898,26.5971 23.3468,20.0901 24.0738,17.8951 C24.8028,15.6991 25.8788,15.2291 27.2098,14.9691 C28.7718,14.6651 29.8218,15.2341 29.1668,18.5031 C28.5108,21.7721 27.0328,28.0261 25.0298,32.1071 C24.0588,34.0851 22.2358,37.1101 19.0388,40.2961 C16.8058,42.5211 14.6968,43.8631 12.0228,45.5321 C11.2938,45.9871 10.8648,46.5051 9.5778,47.5361 C8.2898,48.5671 6.5548,49.4471 5.1888,49.6471 C3.8228,49.8461 3.2988,49.7021 3.1388,49.4441 C2.9358,49.1191 3.1588,48.8331 3.7718,48.6711 C4.3858,48.5081 5.4288,48.3411 6.5768,47.6001 C6.5768,47.6001 5.2528,48.0231 4.4378,48.2061 C3.6238,48.3881 2.8058,48.4411 2.2278,48.4031 C1.5118,48.3581 0.9608,47.4471 1.5738,47.2681 C2.1908,47.0881 2.7128,47.1171 3.9148,46.8291 C5.0088,46.5671 5.7568,46.1591 5.7568,46.1591 C5.7568,46.1591 4.4358,46.4031 3.2928,46.3971 C2.1488,46.3911 1.6788,46.1541 1.3768,45.9811 C1.0758,45.8081 0.9248,45.1881 1.7168,45.0671 C2.4278,44.9581 3.3728,45.1261 4.6968,44.7071 C5.6588,44.4031 6.2958,44.0561 6.1228,43.9511 C5.9498,43.8461 5.3968,44.0641 4.5308,43.9141 C3.7028,43.7711 2.9748,43.1371 3.0928,42.6791 C3.2088,42.2201 3.3278,42.4901 4.2018,42.5051" id="Fill-15" fill="#FFA8A7"></path><path d="M27.3571,14.6379 C25.7901,14.3339 24.4331,15.7589 23.6801,18.0249 C22.9281,20.2899 21.8861,25.1959 21.2411,26.8939 C20.5951,28.5919 20.3871,29.9799 20.3871,29.9799 C20.3871,29.9799 23.0481,32.2569 26.0331,31.6689 C26.0331,31.6689 27.9821,26.5569 28.8731,22.2469 C29.7621,17.9359 30.1761,15.1849 27.3571,14.6379" id="Fill-17" fill="#E2E7FC"></path><path d="M20.5535,29.1585 L20.6945,28.5885 C20.6945,28.5885 20.3875,28.5875 19.8985,29.9045 C19.4085,31.2215 19.3045,32.0985 19.5115,32.3955 C20.7425,34.1605 24.4095,34.9485 25.1165,33.9885 C25.6155,33.3105 26.7975,31.4235 26.4365,30.5655 L26.1995,31.1885 C26.1995,31.1885 25.0635,31.3965 23.0885,30.7795 C21.4865,30.2795 20.5535,29.1585 20.5535,29.1585 Z" id="Fill-19" fill="#E6EAFF"></path><path d="M13.8424,84.3367 C13.8424,84.3367 13.9464,85.2227 14.1434,85.9477 C14.3394,86.6727 14.5084,87.8717 14.3774,88.4617 C14.2454,89.0507 12.5704,89.8867 11.6384,90.0097 C10.7064,90.1317 9.2674,91.1247 8.7394,91.7957 C7.9854,92.7567 5.9694,93.4697 4.6704,93.3197 C3.3714,93.1717 1.9074,92.8647 1.5944,92.3407 C1.2814,91.8157 1.7174,91.2277 4.4414,89.2857 C7.1654,87.3447 8.9904,86.1667 9.8474,84.3667 L13.8424,84.3367 Z" id="Fill-21" fill="#2D2979"></path><path d="M23.7203,102.7634 C23.0293,103.7544 21.8613,104.2144 20.6773,104.3844 C20.0543,104.4744 19.4203,104.4664 18.7903,104.4574 C18.1253,104.4494 17.1043,104.0594 17.1643,103.2304 C17.1843,102.9664 17.3523,102.7414 17.5133,102.5324 C18.5793,101.1514 19.7283,99.8284 20.7043,98.3794 C21.8043,96.7484 22.8963,95.2064 23.2933,92.7494 L27.3823,92.7964 C27.3973,93.1394 27.4913,93.6214 27.5533,94.0744 C27.6163,94.5304 27.7383,94.9754 27.8393,95.4234 C28.0423,96.3104 28.1803,97.2414 27.7233,98.0764 C27.3803,98.7024 26.7013,99.0524 26.1513,99.5064 C25.1023,100.3714 24.4973,101.6474 23.7203,102.7634" id="Fill-23" fill="#2D2979"></path><path d="M43.0123,48.696 C44.4923,57.948 39.7343,60.649 35.2243,64.122 C31.5663,66.939 27.9493,69 27.9493,69 C27.9493,69 28.3633,71.174 28.4063,75.731 C28.4433,79.745 27.3823,92.797 27.3823,92.797 C27.3823,92.797 25.1693,93.942 23.2933,92.75 C23.2933,92.75 21.9123,82.862 21.2673,77.821 C20.3613,70.737 19.5723,67.536 19.9223,66.059 C20.2313,64.757 26.0843,58.259 27.5033,56.078 L14.4233,63.676 C14.4233,63.676 14.8693,67.005 14.8043,69.485 C14.6603,74.933 13.8423,84.337 13.8423,84.337 C13.8423,84.337 11.6863,85.894 9.8473,84.366 C9.8473,84.366 5.7423,62.202 5.7423,60.249 C5.7423,57.281 17.7203,49.846 20.3873,48.088 C22.5453,46.665 24.9623,44.811 24.9623,44.811 L43.0123,48.696 Z" id="Fill-25" fill="#0068F0"></path><path d="M27.5035,56.0779 C27.5035,56.0779 25.4055,54.5269 24.5155,51.8149 C24.5155,51.8149 24.6275,53.6429 24.9815,55.0569 C25.3345,56.4729 14.4235,63.6769 14.4235,63.6769 L27.5035,56.0779 Z" id="Fill-27" fill="#597BC6"></path><path d="M37.6129,13.3279 C37.6129,13.3279 37.3859,17.7359 37.4839,18.1249 C37.5819,18.5149 39.5069,19.8069 40.0669,20.2699 C40.6279,20.7329 37.0209,24.2909 35.2659,25.0959 C33.5109,25.8999 27.9549,23.7799 27.8569,21.0499 C27.7599,18.3199 28.8079,16.0299 29.6609,15.9079 C30.5139,15.7859 37.6129,13.3279 37.6129,13.3279" id="Fill-29" fill="#FFA8A7"></path><path d="M31.3151,18.384 C30.7441,17.851 32.0021,16.164 32.4021,15.359 C34.2221,14.81 37.6131,13.328 37.6131,13.328 C37.6131,13.328 37.5641,14.343 37.5331,15.051 C37.5331,15.879 37.0121,16.723 36.3541,17.224 C35.8601,17.6 35.2091,18.051 34.3891,18.369 C33.6651,18.65 32.2051,19.213 31.3151,18.384" id="Fill-31" fill="#F28F8F"></path><path d="M38.1178,18.4709 C38.1178,18.4709 34.9208,23.2349 30.4588,23.6829 C29.0528,22.2979 28.9238,17.3629 30.8708,15.7859 C30.8708,15.7859 29.0818,14.3419 27.8568,14.6219 C27.8568,14.6219 25.9268,15.6229 25.1018,18.1369 C24.2788,20.6519 23.4458,23.6609 23.5288,28.3369 C23.6218,33.4989 24.1218,47.4829 24.0348,45.0069 C24.0348,45.0069 23.4708,47.4919 27.5038,49.7399 C31.5378,51.9879 35.2558,53.0279 37.9908,52.3889 C40.2498,51.8629 42.6588,50.4839 43.0128,48.6959 C42.8098,45.4199 42.1118,39.9479 42.6588,35.8269 C43.2048,31.7069 43.1568,28.2879 43.3818,24.9569 C43.6058,21.6249 42.9428,21.6929 41.2718,20.5049 C39.0248,18.9079 38.1178,18.4709 38.1178,18.4709" id="Fill-33" fill="#EFF1FF"></path><path d="M30.4586,23.6833 C30.4586,23.6833 30.0756,21.5653 30.0746,20.4263 C30.1786,18.8983 31.3146,16.9053 31.3146,16.9053 L31.3146,15.6693 C31.3146,15.6693 30.4346,15.8123 29.6846,16.7343 C28.9346,17.6553 27.7846,19.6413 28.0676,21.5843 C28.0676,21.5843 28.6366,22.7183 30.4586,23.6833" id="Fill-35" fill="#E2E7FC"></path><path d="M30.4586,23.6833 C30.1346,23.0543 29.5156,20.9343 29.2136,20.6203 C28.6256,20.4263 28.0676,21.5843 28.0676,21.5843 C28.0676,21.5843 28.0866,22.8153 28.8266,23.5133 C29.5676,24.2103 30.4586,23.6833 30.4586,23.6833" id="Fill-37" fill="#EFF1FF"></path><path d="M29.2135,20.6199 C29.5155,20.9349 30.1345,23.0549 30.4585,23.6829 C30.4585,23.6829 30.1165,23.0909 29.7825,22.6649 C29.4495,22.2389 29.0505,21.4259 28.0675,21.5839 C28.0675,21.5839 28.6255,20.4259 29.2135,20.6199" id="Fill-39" fill="#C4CBEB"></path><path d="M39.4791,3.7058 C39.4791,3.7058 39.9011,2.3608 38.1681,1.0468 C36.1071,-0.5172 33.2081,-0.1692 30.1521,1.0468 C28.1981,1.8228 25.1671,0.8708 25.7551,3.1108 C26.6161,6.3918 32.9551,6.6748 35.7121,4.3878 C35.9101,4.3248 37.9101,3.3538 39.4791,3.7058" id="Fill-41" fill="#543354"></path><path d="M37.4684,16.9338 C37.3864,17.6108 33.8004,20.2808 32.9444,20.6268 C32.0884,20.9738 30.4584,23.6838 30.4584,23.6838 C31.7374,23.4688 32.7944,23.9888 33.7184,24.9568 C33.7184,24.9568 38.8154,22.8128 39.6394,19.3868 C39.6394,19.3868 38.6904,17.5498 38.5474,17.0808 C38.4054,16.6128 38.0224,16.0678 37.4894,16.0448 L37.4684,16.9338 Z" id="Fill-43" fill="#E2E7FC"></path><path d="M33.7184,24.9568 C33.7184,24.9568 33.3404,22.3298 32.7944,22.0908 C32.2474,21.8518 30.4584,23.6838 30.4584,23.6838 C31.1694,24.3048 32.1374,24.9058 33.7184,24.9568" id="Fill-45" fill="#EFF1FF"></path><path d="M32.7946,22.0906 C33.3406,22.3296 33.7186,24.9566 33.7186,24.9566 C33.7186,24.9566 32.2886,23.6456 31.8476,23.5126 C31.4056,23.3806 30.4586,23.6836 30.4586,23.6836 C30.4586,23.6836 32.2476,21.8516 32.7946,22.0906" id="Fill-47" fill="#C4CBEB"></path><path d="M27.6403,6.7595 L27.6403,6.7595 C28.1653,3.3375 30.6293,0.7465 34.1583,0.9425 C37.9103,1.1505 40.7843,4.3625 40.5753,8.1145 C40.4533,10.3105 39.2973,12.1745 37.6133,13.3265 C37.6133,13.3265 37.2893,14.5625 37.0673,14.8225 C35.8203,16.2815 32.0463,17.1825 30.9623,17.0285 C29.5713,16.8285 28.8173,16.2485 28.1543,14.7275 C26.9833,12.0415 27.3503,8.4495 27.6403,6.7595" id="Fill-49" fill="#FFA8A7"></path><path d="M28.153,4.0012 C29.611,1.7862 32.286,0.4732 35.201,1.0802 C38.074,1.6772 40.29,4.1682 40.556,7.0902 C40.797,9.7182 39.549,11.9972 37.613,13.3272 C37.688,13.0952 39.466,10.4372 37.634,9.8492 C37.343,10.1872 37.267,10.7042 37.254,11.2432 C37.254,11.2432 36.345,11.1582 36.549,10.0932 C36.607,9.7962 36.66,9.5242 36.708,9.2792 C36.871,8.4532 36.658,7.6182 36.187,6.9202 C35.807,6.3562 35.483,5.5742 35.707,4.6992 C35.707,4.6992 33.44,5.7122 30.543,5.0992 C29.322,4.8402 28.492,4.3812 28.153,4.0012" id="Fill-51" fill="#543354"></path><path d="M40.3698,58.4704 C41.0558,57.9274 41.4958,57.2344 42.5218,56.5464 C43.4268,55.9414 43.7888,55.6754 44.3498,54.8324 C44.9608,53.9174 45.6128,50.8104 45.9238,47.8504 C46.2908,44.3574 45.5338,39.8754 44.9408,38.0014 C43.7368,34.1954 41.1858,29.0544 40.3578,26.8954 C39.5298,24.7354 40.0638,23.6894 40.9288,22.6454 C41.9438,21.4194 43.7218,21.4894 45.2868,24.4334 C46.8508,27.3784 49.0668,32.8564 50.1048,37.2824 C50.6078,39.4274 51.1158,42.9234 50.6618,47.4134 C50.3448,50.5504 49.5638,52.9244 48.5548,55.9104 C48.2778,56.7244 48.2748,57.3964 47.9328,59.0104 C47.5908,60.6244 46.8068,62.4054 45.8758,63.4244 C44.9458,64.4444 44.4488,64.6654 44.1618,64.5674 C43.7998,64.4444 43.7908,64.0814 44.1618,63.5674 C44.5328,63.0534 45.2338,62.2624 45.6518,60.9624 C45.6518,60.9624 44.8958,62.1284 44.3828,62.7854 C43.8678,63.4434 43.2678,64.0024 42.7988,64.3404 C42.2158,64.7584 41.2118,64.4044 41.5728,63.8764 C41.9358,63.3454 42.3568,63.0384 43.1038,62.0534 C43.7848,61.1574 44.1038,60.3674 44.1038,60.3674 C44.1038,60.3674 43.2378,61.3924 42.3488,62.1134 C41.4618,62.8334 40.9468,62.9484 40.6038,63.0054 C40.2618,63.0624 39.7518,62.6784 40.2868,62.0834 C40.7678,61.5484 41.6048,61.0794 42.3648,59.9164 C42.9158,59.0714 43.1888,58.3984 42.9888,58.4274 C42.7888,58.4554 42.4988,58.9744 41.7328,59.4084 C41.0028,59.8224 40.0378,59.7924 39.8378,59.3644 C39.6388,58.9354 39.6838,59.0124 40.3698,58.4704" id="Fill-53" fill="#FFA8A7"></path><path d="M41.0787,21.8957 C39.6367,22.5797 39.3887,24.5317 40.1257,26.8027 C40.8627,29.0727 42.9317,33.6417 43.4177,35.3917 C43.9047,37.1427 44.5597,38.3827 44.5597,38.3827 C44.5597,38.3827 48.0537,38.6397 50.1067,36.3967 C50.1067,36.3967 48.6477,31.1247 46.8087,27.1257 C44.9717,23.1257 43.6747,20.6647 41.0787,21.8957" id="Fill-55" fill="#E2E7FC"></path><path d="M47.2096,37.4265 C45.6226,37.9725 44.2066,37.6235 44.2066,37.6235 L43.9826,37.0805 C43.9826,37.0805 43.7336,37.2615 44.1206,38.6125 C44.5076,39.9635 44.9436,40.7325 45.2866,40.8485 C47.3246,41.5395 50.7446,40.0015 50.7446,38.8095 C50.7446,37.9675 50.5776,35.7465 49.7776,35.2695 L49.9566,35.9105 C49.9566,35.9105 49.1656,36.7535 47.2096,37.4265" id="Fill-57" fill="#EFF1FF"></path><path d="M37.6129,13.3025 C37.6129,13.3025 37.7699,13.6655 38.4329,13.6985 C39.6699,13.7605 41.1199,11.4605 40.1219,9.8995 C39.4979,8.9235 38.0909,9.2655 37.6339,9.8485 L37.6129,13.3025 Z" id="Fill-59" fill="#FFA8A7"></path><path d="M7.111,53.6492 L17.674,47.5502 C17.863,47.4422 18.094,47.4422 18.282,47.5502 L36.812,58.2502 L25.946,64.5242 L7.111,53.6492 Z" id="Fill-61" fill="#EFF6FE"></path><polygon id="Fill-63" fill="#AAD1FC" points="26.0436 63.6272 31.7406 60.3412 15.0806 50.7212 9.3536 53.9912"></polygon><polygon id="Fill-65" fill="#AEB5B7" points="28.8434 54.4856 28.7394 54.5466 25.9464 56.1576 20.9794 53.2906 20.8754 53.2316 23.7744 51.5586"></polygon><polygon id="Fill-67" fill="#AAD1FC" points="28.7389 54.5461 25.9459 56.1581 20.9789 53.2911 23.7739 51.6781"></polygon><path d="M36.8121,58.2497 L36.8121,58.4977 C36.8121,58.8617 36.6171,59.1987 36.3031,59.3807 L26.4561,65.0657 C26.2991,65.1567 26.1231,65.2017 25.9461,65.2017 C25.7711,65.2017 25.5941,65.1567 25.4381,65.0657 L7.6211,54.7797 C7.3051,54.5977 7.1111,54.2607 7.1111,53.8967 L7.1111,53.6487 L25.9461,64.5237 L36.8121,58.2497 Z" id="Fill-69" fill="#C8E2FF"></path><path d="M25.9459,64.5237 L25.9459,65.2017 C25.7709,65.2017 25.5939,65.1567 25.4379,65.0657 L7.6209,54.7797 C7.3049,54.5977 7.1109,54.2607 7.1109,53.8967 L7.1109,53.6487 L25.9459,64.5237 Z" id="Fill-71" fill="#AAD1FC"></path><path d="M25.6588,64.6741 C25.3218,64.8041 24.9378,64.7791 24.6188,64.5941 L6.8808,54.3521 C6.5688,54.1721 6.3538,53.8631 6.2938,53.5081 L4.3518,41.9281 C4.3418,41.8621 4.3358,41.7961 4.3358,41.7301 C4.3358,41.4071 4.4648,41.0991 4.6918,40.8721 L23.1268,51.5171 C23.3568,51.6511 23.5148,51.8791 23.5598,52.1411 L25.6588,64.6741 Z" id="Fill-73" fill="#EFF6FE"></path><path d="M25.9459,64.5242 L25.8249,64.5942 C25.7709,64.6242 25.7159,64.6512 25.6589,64.6742 L23.5599,52.1412 C23.5149,51.8782 23.3569,51.6502 23.1269,51.5172 L4.6919,40.8722 C4.7629,40.8012 4.8469,40.7382 4.9379,40.6852 L23.4099,51.3492 C23.6399,51.4832 23.7989,51.7112 23.8429,51.9732 L25.9459,64.5242 Z" id="Fill-75" fill="#C8E2FF"></path><path d="M15.6686,53.9831 C15.5386,53.2081 14.7376,52.1781 13.8806,51.6831 C13.0226,51.1881 12.4336,51.4151 12.5636,52.1911 C12.6926,52.9661 13.4936,53.9961 14.3516,54.4911 C15.2086,54.9861 15.7986,54.7581 15.6686,53.9831" id="Fill-77" fill="#AAD1FC"></path></g><g id="girl" transform="translate(252.000000, 265.000000)"><path d="M27.095,101.6882 L20.043,97.6172 C15.261,94.8552 8.655,94.1922 5.29,96.1342 C1.925,98.0772 3.074,101.8912 7.857,104.6522 L14.909,108.7232 C19.692,111.4852 26.297,112.1492 29.662,110.2062 C33.027,108.2622 31.878,104.4492 27.095,101.6882" id="Fill-1" fill="#BEC5E3"></path><path d="M11.6706,101.0749 C11.6706,101.0749 11.3606,101.6179 9.6856,100.9139 C8.0096,100.2089 7.5386,99.3729 7.5386,99.3729 C7.5386,99.3729 7.9746,96.0089 9.0116,96.8549 C10.0486,97.7009 11.6706,101.0749 11.6706,101.0749" id="Fill-4" fill="#291D51"></path><path d="M7.4621,89.3034 C7.4911,91.0684 7.5341,92.4174 6.8641,93.3634 C6.1941,94.3084 6.1371,94.9514 6.1371,94.9514 C6.1371,94.9514 8.1301,95.2334 9.1421,96.6044 C10.1541,97.9754 10.0981,99.3464 11.0371,99.5734 C11.9761,99.8004 13.5441,98.7214 13.5441,98.7214 C13.5441,98.7214 12.5501,98.6824 12.1621,97.4354 C11.7741,96.1894 10.7751,93.5244 10.7381,92.8234 C10.7021,92.1224 10.7381,89.4174 10.7381,89.4174 L7.4621,89.3034 Z" id="Fill-6" fill="#FFA8A7"></path><path d="M7.4416,93.821 C8.3076,93.875 9.6376,94.844 10.0806,95.848 C10.5236,96.852 11.2556,98.263 11.8196,98.58 C12.3846,98.895 13.3826,98.435 14.2346,98.429 C15.0866,98.425 15.6886,98.819 15.7366,99.44 C15.7366,99.44 13.0086,100.732 12.1906,101.12 C11.3726,101.508 10.6826,101.519 10.0406,99.821 C9.3986,98.123 9.1546,97.167 8.6456,98.321 C8.1346,99.476 7.9236,102.075 7.9236,102.075 C7.9236,102.075 7.2246,102.333 6.8916,101.643 C6.8916,101.643 6.9136,100.421 6.7666,99.376 C6.6206,98.332 5.6726,97.017 5.7446,95.759 C5.8166,94.503 6.5006,93.762 7.4416,93.821" id="Fill-8" fill="#2D2979"></path><path d="M24.8796,107.8854 C24.8796,107.8854 24.5596,108.4474 22.8266,107.7194 C21.0936,106.9904 20.6066,106.1254 20.6066,106.1254 C20.6066,106.1254 21.0576,102.6474 22.1296,103.5224 C23.2016,104.3974 24.8796,107.8854 24.8796,107.8854" id="Fill-10" fill="#291D51"></path><path d="M20.5271,95.7126 C20.5571,97.5366 20.6021,98.9336 19.9091,99.9106 C19.2161,100.8886 19.1571,101.5536 19.1571,101.5536 C19.1571,101.5536 21.2181,101.8446 22.2651,103.2626 C23.3121,104.6806 23.2541,106.0986 24.2251,106.3336 C25.1951,106.5676 26.8171,105.4526 26.8171,105.4526 C26.8171,105.4526 25.7891,105.4106 25.3881,104.1216 C24.9861,102.8326 23.9541,100.0776 23.9161,99.3526 C23.8781,98.6276 23.7441,95.7126 23.7441,95.7126 L20.5271,95.7126 Z" id="Fill-12" fill="#FFA8A7"></path><path d="M20.5061,100.3835 C21.4021,100.4395 22.7771,101.4425 23.2351,102.4815 C23.6941,103.5195 24.4511,104.9795 25.0341,105.3055 C25.6181,105.6315 26.6511,105.1555 27.5311,105.1505 C28.4121,105.1455 29.0351,105.5535 29.0851,106.1955 C29.0851,106.1955 26.2631,107.5315 25.4181,107.9325 C24.5721,108.3325 23.8581,108.3465 23.1941,106.5895 C22.5301,104.8325 22.2781,103.8445 21.7511,105.0375 C21.2231,106.2335 21.0041,108.9195 21.0041,108.9195 C21.0041,108.9195 20.2821,109.1865 19.9371,108.4745 C19.9371,108.4745 19.9601,107.2095 19.8081,106.1285 C19.6571,105.0485 18.6761,103.6905 18.7511,102.3895 C18.8251,101.0885 19.5331,100.3235 20.5061,100.3835" id="Fill-14" fill="#2D2979"></path><path d="M6.5901,16.9528 C4.9981,17.4128 4.0861,19.1768 2.6871,22.9468 C1.2881,26.7188 -0.1679,32.2158 0.0161,33.6688 C0.4651,37.2238 2.6741,40.2588 6.4801,42.7778 L8.1781,39.6658 C8.1781,39.6658 4.4461,36.6618 4.0891,33.1078 C3.8881,31.1108 6.4801,24.3168 6.4801,24.1348 C6.4801,23.9518 6.5901,16.9528 6.5901,16.9528" id="Fill-16" fill="#FFA8A7"></path><path d="M5.3904,78.6599 C5.3904,75.3889 6.1374,73.2039 6.1374,73.2039 C6.1374,73.2039 4.7744,66.4989 4.2724,61.3299 C3.5334,53.7059 2.1834,51.8799 3.4004,47.3649 C4.5204,43.2069 6.2924,40.3049 7.4754,37.3829 L19.9194,38.3639 C19.9194,38.3639 21.0004,41.8909 22.3984,48.9169 C23.7974,55.9409 24.4314,64.2349 24.2964,75.3029 C24.2614,78.1549 24.2394,80.7009 24.0714,87.8089 C23.9594,92.5879 23.9064,99.0229 23.9064,99.0229 C21.9844,100.1399 20.3654,98.8729 20.3654,98.8729 C20.3654,98.8729 17.4204,84.6979 16.9484,81.4449 C16.4594,78.0819 17.3824,76.0739 17.3824,76.0739 C17.3824,76.0739 16.4484,71.6259 15.7544,68.1279 C14.9094,63.8629 12.8184,54.6459 12.8184,54.6459 C12.8184,54.6459 12.7574,68.7479 12.5574,71.5939 C12.3594,74.4399 12.4734,76.7129 11.9474,80.5069 C11.3094,85.0969 10.7384,92.8229 10.7384,92.8229 C8.7454,93.2999 7.3354,92.2219 7.3354,92.2219 C7.3354,92.2219 5.3904,82.6739 5.3904,78.6599" id="Fill-18" fill="#0068F0"></path><path d="M12.8186,54.6462 C12.8186,54.6462 12.7566,68.7472 12.5576,71.5932 C12.5326,71.9502 12.5096,72.2662 12.4856,72.5592 L12.4836,72.5832 C12.4796,72.6352 12.4746,72.6842 12.4706,72.7362 L11.0206,56.2432 C7.0126,55.0892 5.7406,52.4022 5.7406,52.4022 C8.4436,55.1182 12.8186,54.6462 12.8186,54.6462" id="Fill-20" fill="#0046C0"></path><path d="M7.3269,16.8806 C9.9759,16.7206 10.2309,17.1596 10.4439,16.2206 C10.5189,15.8836 10.6669,13.5506 10.6669,13.5506 C10.4319,13.3016 10.0049,12.5716 10.0049,12.5716 C8.2659,11.5026 7.0219,9.6966 6.7939,7.5106 C6.4039,3.7726 9.1189,0.4256 12.8569,0.0356 C16.3709,-0.3314 18.9569,2.1386 19.6479,5.5296 C20.0189,7.2046 20.4039,10.6256 19.3649,13.3656 C18.7759,14.9176 18.2309,16.0036 16.8269,15.9476 C16.5619,15.9376 16.0569,15.8506 15.4429,15.7026 C15.3889,16.2076 15.3289,16.9616 15.3669,17.6486 C15.4029,18.3256 15.2879,18.6666 16.6159,19.4846 C17.9439,20.3016 14.6089,21.9826 12.4309,21.8166 C10.2529,21.6516 7.8029,20.3376 7.1309,18.9286 C6.3819,17.3576 6.0789,16.9556 7.3269,16.8806" id="Fill-22" fill="#FFA8A7"></path><path d="M7.1311,18.9284 C6.3821,17.3574 6.0791,16.9554 7.3271,16.8804 C9.9761,16.7204 10.2311,17.1594 10.4441,16.2204 C10.5191,15.8834 10.6671,13.5504 10.6671,13.5504 C10.4321,13.3014 10.0051,12.5724 10.0051,12.5724 C9.0501,11.9854 8.2531,11.1694 7.6831,10.1974 C7.7751,10.1114 7.8411,10.0484 7.8411,10.0484 L13.5021,12.9684 L14.5521,12.7384 L15.3921,11.7924 C15.3921,11.7924 15.5261,13.4294 15.7821,14.1724 C16.0371,14.9124 17.7431,15.7634 17.7571,15.7714 C17.4941,15.8974 17.1901,15.9614 16.8271,15.9484 C16.5621,15.9374 16.0561,15.8504 15.4431,15.7024 C15.3881,16.2074 15.3291,16.9614 15.3661,17.6484 C15.4031,18.3254 15.2881,18.6664 16.6161,19.4844 C17.9441,20.3014 14.6091,21.9824 12.4311,21.8164 C10.2531,21.6514 7.8031,20.3374 7.1311,18.9284" id="Fill-25" fill="#F28F8F"></path><path d="M9.2649,12.8015 C7.5599,11.2425 7.0219,9.6975 6.7939,7.5105 C6.4039,3.7725 9.1189,0.4255 12.8569,0.0355 C15.2789,-0.2175 17.2599,0.8775 18.4829,2.6925 C18.4819,2.6945 18.2319,3.1985 17.8469,3.5755 C17.8469,3.5755 18.1529,4.4445 17.6049,5.0605 C17.2099,5.5025 17.0949,6.1275 17.1829,6.7135 C17.2789,7.3515 17.3519,8.1405 17.2849,8.8385 C17.1879,9.8245 16.2619,10.2725 16.2619,10.2725 C16.2619,10.2725 16.1269,8.7675 15.7529,7.9505 C15.3789,7.1335 13.9519,6.9195 13.4369,8.0635 C12.9219,9.2055 13.1249,10.0965 13.6639,11.0315 C14.1559,11.8855 14.9389,11.9455 15.3919,11.7925 C15.5039,12.1725 15.3769,13.4575 13.9009,13.8735 C12.4249,14.2885 11.0459,13.9055 10.2889,13.5125 C9.8339,13.2835 9.2649,12.8015 9.2649,12.8015" id="Fill-27" fill="#543354"></path><path d="M16.8098,0.9938 C17.7348,0.8158 20.3538,1.3468 20.3258,4.0698 C20.3018,6.2918 18.8348,7.8648 16.9188,8.3928 L16.8098,0.9938 Z" id="Fill-30" fill="#543354"></path><path d="M9.9577,16.8239 C9.4697,17.4329 9.4137,18.2019 11.3067,18.6779 C13.7767,19.2999 15.4437,18.3599 15.4437,18.3599 C15.4437,18.3599 17.9907,19.4239 19.7267,20.6289 C23.9557,23.5649 24.9757,28.6659 20.7097,30.4229 C20.4507,32.3389 20.1337,37.2719 20.0527,38.3939 C16.4457,40.9139 9.1187,40.0539 7.4757,37.3829 C7.4587,36.4769 7.2857,34.9379 7.2257,34.7159 C5.5037,28.3349 4.1597,26.6399 4.6397,21.8279 C4.9147,19.0739 5.1257,17.6889 6.5897,16.9529 C7.4737,16.6769 9.4247,16.7889 9.9577,16.8239" id="Fill-32" fill="#F5FBFB"></path><path d="M16.3293,18.7546 C16.3293,18.7546 15.8893,17.5636 15.7893,17.2786 C15.6913,16.9946 15.3573,16.9526 15.3573,16.9526 C15.3573,16.9526 14.8673,17.5586 13.2793,17.3976 C11.6923,17.2366 10.4283,16.5126 10.4813,15.9496 L10.5163,15.5876 C10.5163,15.5876 10.0683,15.5086 9.7453,15.8506 C9.4213,16.1916 8.9583,16.8146 8.9583,16.8146 C8.9583,16.8146 8.6973,18.1216 10.8283,18.9146 C12.9583,19.7086 14.8973,19.3886 16.3293,18.7546" id="Fill-34" fill="#E4F2F2"></path><path d="M36.4319,49.9763 C35.5669,49.8483 34.8659,49.4133 33.6329,49.3293 C32.5469,49.2553 31.8429,49.1713 30.8879,48.8303 C29.9329,48.4913 28.8159,47.2883 27.0689,44.8773 C25.0079,42.0353 23.4429,37.8113 23.0149,35.8923 C22.0929,31.7533 21.7089,25.9893 21.7119,23.9693 C21.7159,21.5473 20.6159,20.5863 19.3449,20.1133 C17.8529,19.5573 16.8139,20.0753 16.9279,23.4073 C17.0409,26.7403 17.6019,32.8743 18.9109,37.2273 C19.5459,39.3373 20.6859,42.5903 23.3209,46.2553 C25.1609,48.8153 25.8559,49.6023 28.2219,51.6863 C28.8669,52.2533 29.2049,52.8343 30.3069,54.0623 C31.4099,55.2893 32.9769,56.4413 34.2919,56.8613 C35.6069,57.2813 36.1479,57.2243 36.3489,56.9963 C36.6009,56.7083 36.4279,56.3893 35.8489,56.1293 C35.2709,55.8693 34.2689,55.5343 33.2569,54.6163 C33.2569,54.6163 34.4949,55.2483 35.2679,55.5623 C36.0419,55.8743 36.8399,56.0603 37.4159,56.1183 C38.1299,56.1903 38.8229,55.3813 38.2469,55.1053 C37.6669,54.8273 37.1489,54.7703 36.0099,54.2893 C34.9729,53.8523 34.3019,53.3283 34.3019,53.3283 C34.3019,53.3283 35.5639,53.7843 36.6939,53.9643 C37.8229,54.1463 38.3259,53.9883 38.6509,53.8673 C38.9769,53.7453 39.2269,53.1593 38.4659,52.9103 C37.7819,52.6863 36.8229,52.6973 35.5839,52.0683 C34.6849,51.6123 34.1129,51.1643 34.3009,51.0893 C34.4879,51.0143 34.9979,51.3203 35.8779,51.3133 C36.7179,51.3073 37.5389,50.8003 37.4979,50.3293 C37.4579,49.8583 37.2969,50.1053 36.4319,49.9763" id="Fill-36" fill="#FFA8A7"></path></g><g id="box" transform="translate(16.000000, 160.000000)"><path d="M21.0708492,51.4693568 L0.799171893,63.3680329 C-0.266390631,63.9930871 -0.266390631,65.0069129 0.799171893,65.632722 L21.0708492,77.5306432 C22.1364117,78.1564523 23.8635883,78.1564523 24.9291508,77.5306432 L45.2008281,65.632722 C46.2663906,65.0069129 46.2663906,63.9930871 45.2008281,63.3680329 L24.9291508,51.4693568 C23.8635883,50.8435477 22.1364117,50.8435477 21.0708492,51.4693568" id="Fill-3" fill="#BEC5E3"></path><path d="M21.0708492,42.4687972 L0.799171893,54.3676397 C-0.266390631,54.9927026 -0.266390631,56.0072974 0.799171893,56.6323603 L21.0708492,68.5312028 C22.1364117,69.1562657 23.8635883,69.1562657 24.9291508,68.5312028 L45.2008281,56.6323603 C46.2663906,56.0072974 46.2663906,54.9927026 45.2008281,54.3676397 L24.9291508,42.4687972 C23.8635883,41.8437343 22.1364117,41.8437343 21.0708492,42.4687972" id="Fill-1" fill="url(#linearGradient-24)" opacity="0.5"></path><path d="M21.0708492,42.4687972 L0.799171893,54.3676397 C-0.266390631,54.9927026 -0.266390631,56.0072974 0.799171893,56.6323603 L21.0708492,68.5312028 C22.1364117,69.1562657 23.8635883,69.1562657 24.9291508,68.5312028 L45.2008281,56.6323603 C46.2663906,56.0072974 46.2663906,54.9927026 45.2008281,54.3676397 L24.9291508,42.4687972 C23.8635883,41.8437343 22.1364117,41.8437343 21.0708492,42.4687972 Z" id="Stroke-6" stroke="#FFFFFF"></path><path d="M46,13 L46,39.8402815 C46,41.0909583 45.1386602,42.6220899 44.0694108,43.2512182 L24.9268765,54.5300487 C24.3922518,54.840823 23.6942696,55 22.9962873,55 C22.2983051,55 21.6003228,54.840823 21.0731235,54.5300487 L1.93058918,43.2512182 C0.86133979,42.6220899 0,41.0909583 0,39.8402815 L0,13 L46,13 Z" id="Fill-8" fill="#DFE4FA"></path><path d="M23,13 L23,55 C22.3019051,55 21.6038101,54.840823 21.0765257,54.5300487 L1.93090087,43.2512182 C0.861478851,42.6220899 0,41.0909583 0,39.8402815 L0,13 L23,13 Z" id="Fill-10" fill="#E8ECFF"></path><path d="M31,32.2823884 L31,40.0667108 C31,40.8991384 31.5869565,41.236609 32.3018395,40.8241449 L32.527592,40.6891566 L39.0744147,36.9244843 C39.4356187,36.7220019 39.7591973,36.3620333 40,35.9495692 L31.3913043,31 C31.1505017,31.4049648 31,31.8624249 31,32.2823884" id="Fill-15" fill="#031F60"></path><path d="M39.9997298,27.1827019 L39.9921923,26.9273457 C39.9997298,26.1011935 39.4118077,25.7632221 38.6882114,26.1762982 L38.567612,26.2438925 L31.9195704,30.0667245 C31.5577722,30.2770178 31.2336613,30.6300101 31,31.0430863 L39.6228567,36 C39.856518,35.5944343 40.0072672,35.1362953 39.9997298,34.7307297 L39.9997298,27.1827019 Z" id="Fill-17" fill="#1E3779"></path><path d="M38.9997288,33.7382662 C39.0072971,34.1634456 38.8559304,34.6272777 38.6137438,35.0524572 C38.3791254,35.4699061 38.0536871,35.8409718 37.690407,36.0574268 L31.0983883,39.9381557 L31,40 L31,32.2617338 C31,31.8288239 31.1513667,31.3572612 31.3935534,30.9398123 C31.6281717,30.5146328 31.9536101,30.1512976 32.3168901,29.9348426 L38.9921604,26 L38.9997288,33.7382662 Z" id="Fill-19" fill="#344593"></path><path d="M16,32.2823884 L16,40.0667108 C16,40.8991384 15.4130435,41.236609 14.6981605,40.8241449 L14.472408,40.6891566 L7.92558528,36.9244843 C7.56438127,36.7220019 7.24080268,36.3620333 7,35.9495692 L15.6086957,31 C15.8494983,31.4049648 16,31.8624249 16,32.2823884" id="Fill-21" fill="#031F60"></path><path d="M7.00027022,27.1827019 L7.00780768,26.9273457 C7.00027022,26.1011935 7.58819227,25.7632221 8.31178863,26.1762982 L8.43238803,26.2438925 L15.0804296,30.0667245 C15.4422278,30.2770178 15.7663387,30.6300101 16,31.0430863 L7.37714333,36 C7.143482,35.5944343 6.99273276,35.1362953 7.00027022,34.7307297 L7.00027022,27.1827019 Z" id="Fill-23" fill="#1E3779"></path><path d="M8.00027122,33.7382662 C7.99270289,34.1634456 8.14406957,34.6272777 8.38625625,35.0524572 C8.62087459,35.4699061 8.94631294,35.8409718 9.30959296,36.0574268 L15.9016117,39.9381557 L16,40 L16,32.2617338 C16,31.8288239 15.8486333,31.3572612 15.6064466,30.9398123 C15.3718283,30.5146328 15.0463899,30.1512976 14.6831099,29.9348426 L8.00783956,26 L8.00027122,33.7382662 Z" id="Fill-25" fill="#344593"></path><path d="M21.0708492,0.4693568 L0.799171893,12.3680329 C-0.266390631,12.9930871 -0.266390631,14.0069129 0.799171893,14.632722 L21.0708492,26.5306432 C22.1364117,27.1564523 23.8635883,27.1564523 24.9291508,26.5306432 L45.2008281,14.632722 C46.2663906,14.0069129 46.2663906,12.9930871 45.2008281,12.3680329 L24.9291508,0.4693568 C23.8635883,-0.156452267 22.1364117,-0.156452267 21.0708492,0.4693568" id="Fill-27" fill="#F2F4FF"></path><path d="M31.4650643,13.7532173 L31.2496041,13.8819076 L24.7857978,17.6896291 C24.4366036,17.9015897 23.9759646,18 23.5078958,18 C23.0398271,18 22.5717584,17.9015897 22.2151346,17.6896291 L15.7513283,13.8819076 L15.5284384,13.7532173 C14.8226205,13.336866 14.8226205,12.655564 15.535868,12.2392127 L22.2151346,8.31037093 C22.5717584,8.0984103 23.0398271,8 23.5078958,8 C23.9759646,8 24.4366036,8.10598032 24.7932274,8.31037093 L31.4650643,12.2392127 C32.1783119,12.655564 32.1783119,13.336866 31.4650643,13.7532173" id="Fill-30" fill="#1E3779"></path><path d="M24,8 L24,18 C23.5048578,18 23.0097155,17.9015897 22.6324643,17.6896291 L15.7947857,13.8819076 L15.5590037,13.7532173 C14.8123607,13.336866 14.8123607,12.655564 15.5668631,12.2392127 L22.6324643,8.31037093 C23.0097155,8.0984103 23.5048578,8 24,8" id="Fill-32" fill="#031F60"></path><path d="M31,13.9940227 L24.3269415,17.6963775 C23.5982742,18.1012075 22.409396,18.1012075 21.6730585,17.6963775 L15,13.9940227 L21.6730585,10.306389 C22.409396,9.89419836 23.5982742,9.90155891 24.3346117,10.306389 L31,13.9940227 Z" id="Fill-34" fill="#344593"></path></g></g></g></g></g></svg>